<svg width="27" height="27" fill="none" xmlns="http://www.w3.org/2000/svg"><path d="M1.688 3.375a1.687 1.687 0 0 1 1.687-1.688H6.75a1.687 1.687 0 0 1 1.688 1.688V6.75A1.687 1.687 0 0 1 6.75 8.438H3.375A1.687 1.687 0 0 1 1.687 6.75V3.375Zm8.437 0a1.687 1.687 0 0 1 1.688-1.688h3.374a1.687 1.687 0 0 1 1.688 1.688V6.75a1.687 1.687 0 0 1-1.688 1.688h-3.374a1.687 1.687 0 0 1-1.688-1.688V3.375Zm8.438 0a1.687 1.687 0 0 1 1.687-1.688h3.375a1.687 1.687 0 0 1 1.688 1.688V6.75a1.687 1.687 0 0 1-1.688 1.688H20.25a1.687 1.687 0 0 1-1.688-1.688V3.375ZM1.688 11.813a1.687 1.687 0 0 1 1.687-1.688H6.75a1.687 1.687 0 0 1 1.688 1.688v3.374a1.687 1.687 0 0 1-1.688 1.688H3.375a1.687 1.687 0 0 1-1.688-1.688v-3.374Zm8.437 0a1.687 1.687 0 0 1 1.688-1.688h3.374a1.687 1.687 0 0 1 1.688 1.688v3.374a1.687 1.687 0 0 1-1.688 1.688h-3.374a1.687 1.687 0 0 1-1.688-1.688v-3.374Zm8.438 0a1.687 1.687 0 0 1 1.687-1.688h3.375a1.687 1.687 0 0 1 1.688 1.688v3.374a1.687 1.687 0 0 1-1.688 1.688H20.25a1.687 1.687 0 0 1-1.688-1.688v-3.374ZM1.688 20.25a1.687 1.687 0 0 1 1.687-1.688H6.75a1.687 1.687 0 0 1 1.688 1.688v3.375a1.687 1.687 0 0 1-1.688 1.688H3.375a1.687 1.687 0 0 1-1.688-1.688V20.25Zm8.437 0a1.687 1.687 0 0 1 1.688-1.688h3.374a1.687 1.687 0 0 1 1.688 1.688v3.375a1.687 1.687 0 0 1-1.688 1.688h-3.374a1.687 1.687 0 0 1-1.688-1.688V20.25Zm8.438 0a1.687 1.687 0 0 1 1.687-1.688h3.375a1.687 1.687 0 0 1 1.688 1.688v3.375a1.687 1.687 0 0 1-1.688 1.688H20.25a1.687 1.687 0 0 1-1.688-1.688V20.25Z" fill="#1D1D1D"/></svg>