<svg width="36" height="37" fill="none" xmlns="http://www.w3.org/2000/svg"><g filter="url('#filter0_d_137_293')" stroke="#fff" stroke-width="2" stroke-linecap="round" stroke-linejoin="round"><path d="m28.438 11.654-.458-.255-.141-.08a2.5 2.5 0 0 1-.838-.825c-.022-.034-.042-.07-.082-.14a2.5 2.5 0 0 1-.375-1.446l.007-.532c.015-.85.023-1.277-.097-1.66a2.5 2.5 0 0 0-.521-.92c-.268-.3-.64-.515-1.383-.942l-.617-.357c-.74-.426-1.112-.64-1.506-.72a2.5 2.5 0 0 0-1.053.008c-.391.087-.758.308-1.489.745l-.004.002-.442.264c-.07.043-.107.063-.142.083-.347.194-.735.3-1.133.312-.04.003-.082.003-.163.003l-.162-.002a2.5 2.5 0 0 1-1.138-.314c-.035-.02-.069-.04-.139-.083l-.446-.268c-.736-.442-1.105-.662-1.498-.75a2.5 2.5 0 0 0-1.058-.008c-.395.082-.765.297-1.506.727l-.004.001-.61.354-.006.005c-.735.425-1.104.64-1.369.939a2.5 2.5 0 0 0-.519.918c-.119.383-.112.81-.097 1.666l.008.53c0 .081.004.121.003.16a2.5 2.5 0 0 1-.376 1.283c-.042.07-.06.105-.082.138a2.5 2.5 0 0 1-.843.83l-.14.079-.452.25c-.752.416-1.128.625-1.4.922a2.5 2.5 0 0 0-.538.913c-.125.383-.125.812-.124 1.672l.002.704c.002.854.004 1.28.13 1.661a2.5 2.5 0 0 0 .534.908c.273.295.645.502 1.391.917l.448.249c.076.043.115.063.151.085a2.5 2.5 0 0 1 .925.976l.084.15a2.5 2.5 0 0 1 .287 1.298l-.008.509c-.015.857-.022 1.287.098 1.67.107.34.284.654.522.92.267.3.64.515 1.382.943l.618.357c.741.426 1.111.64 1.505.72a2.5 2.5 0 0 0 1.053-.008c.393-.087.76-.308 1.493-.747l.442-.265.142-.083c.347-.193.735-.3 1.133-.313h.326c.397.012.787.12 1.137.314l.115.069.47.282c.737.443 1.105.663 1.499.75a2.5 2.5 0 0 0 1.057.01c.394-.082.767-.298 1.508-.728l.618-.359c.735-.427 1.104-.641 1.37-.94a2.5 2.5 0 0 0 .518-.917c.119-.382.113-.805.098-1.648l-.01-.55v-.159a2.5 2.5 0 0 1 .375-1.285l.08-.137c.211-.34.5-.625.845-.83l.137-.076.003-.002.45-.25c.753-.417 1.13-.625 1.403-.922a2.5 2.5 0 0 0 .537-.913c.124-.381.124-.808.122-1.658l-.003-.718c0-.854-.002-1.281-.128-1.663a2.501 2.501 0 0 0-.535-.906c-.271-.295-.644-.502-1.389-.916l-.003-.001Z"/><path d="M13 15.5a5 5 0 1 0 10 0 5 5 0 0 0-10 0Z"/></g><defs><filter id="filter0_d_137_293" x=".504" y="2.716" width="34.992" height="33.568" filterUnits="userSpaceOnUse" color-interpolation-filters="sRGB"><feFlood flood-opacity="0" result="BackgroundImageFix"/><feColorMatrix in="SourceAlpha" values="0 0 0 0 0 0 0 0 0 0 0 0 0 0 0 0 0 0 127 0" result="hardAlpha"/><feOffset dy="4"/><feGaussianBlur stdDeviation="2"/><feComposite in2="hardAlpha" operator="out"/><feColorMatrix values="0 0 0 0 0 0 0 0 0 0 0 0 0 0 0 0 0 0 0.35 0"/><feBlend in2="BackgroundImageFix" result="effect1_dropShadow_137_293"/><feBlend in="SourceGraphic" in2="effect1_dropShadow_137_293" result="shape"/></filter></defs></svg>