<svg width="24" height="24" fill="none" xmlns="http://www.w3.org/2000/svg"><g filter="url('#filter0_d_137_475')" fill="#fff" clip-path="url('#clip0_137_475')"><path d="M14 18a2 2 0 1 0-4 0 2 2 0 0 0 4 0ZM14 12a2 2 0 1 0-4 0 2 2 0 0 0 4 0ZM12 4a2 2 0 1 1 0 4 2 2 0 0 1 0-4Z"/></g><defs><clipPath id="clip0_137_475"><path fill="#fff" transform="rotate(-90 12 12)" d="M0 0h24v24H0z"/></clipPath><filter id="filter0_d_137_475" x="1.7" y="-4.3" width="20.6" height="32.6" filterUnits="userSpaceOnUse" color-interpolation-filters="sRGB"><feFlood flood-opacity="0" result="BackgroundImageFix"/><feColorMatrix in="SourceAlpha" values="0 0 0 0 0 0 0 0 0 0 0 0 0 0 0 0 0 0 127 0" result="hardAlpha"/><feOffset/><feGaussianBlur stdDeviation="4.15"/><feColorMatrix values="0 0 0 0 0 0 0 0 0 0 0 0 0 0 0 0 0 0 0.24 0"/><feBlend in2="BackgroundImageFix" result="effect1_dropShadow_137_475"/><feBlend in="SourceGraphic" in2="effect1_dropShadow_137_475" result="shape"/></filter></defs></svg>