<svg width="30" height="38" fill="none" xmlns="http://www.w3.org/2000/svg"><g filter="url('#filter0_d_137_291')"><path d="M13.888 29.25a1.25 1.25 0 0 1-1.238-1.387L13.613 19H6.25a1.25 1.25 0 0 1-1.037-1.95L15.075 2.3a1.25 1.25 0 0 1 1.463-.475 1.25 1.25 0 0 1 .812 1.25L16.388 12h7.362a1.25 1.25 0 0 1 1.038 1.95L14.925 28.7a1.25 1.25 0 0 1-1.037.55Z" fill="#fff"/></g><defs><filter id="filter0_d_137_291" x=".998" y="1.75" width="28.004" height="35.5" filterUnits="userSpaceOnUse" color-interpolation-filters="sRGB"><feFlood flood-opacity="0" result="BackgroundImageFix"/><feColorMatrix in="SourceAlpha" values="0 0 0 0 0 0 0 0 0 0 0 0 0 0 0 0 0 0 127 0" result="hardAlpha"/><feOffset dy="4"/><feGaussianBlur stdDeviation="2"/><feComposite in2="hardAlpha" operator="out"/><feColorMatrix values="0 0 0 0 0 0 0 0 0 0 0 0 0 0 0 0 0 0 0.35 0"/><feBlend in2="BackgroundImageFix" result="effect1_dropShadow_137_291"/><feBlend in="SourceGraphic" in2="effect1_dropShadow_137_291" result="shape"/></filter></defs></svg>