<svg width="10" height="9" fill="none" xmlns="http://www.w3.org/2000/svg"><g clip-path="url('#clip0_137_487')"><path d="M9.191.11c.15.106.238.275.238.452V6.47c0 .776-.792 1.406-1.768 1.406s-1.768-.63-1.768-1.406c0-.777.792-1.407 1.768-1.407.206 0 .405.028.589.081v-2.56l-4.714 1.35v3.66C3.536 8.37 2.744 9 1.768 9S0 8.37 0 7.594c0-.777.792-1.407 1.768-1.407.206 0 .405.028.59.081V2.25a.57.57 0 0 1 .419-.54L8.67.023A.609.609 0 0 1 9.19.11Z" fill="#F0F0F0"/></g><defs><clipPath id="clip0_137_487"><path fill="#fff" d="M0 0h9.429v9H0z"/></clipPath></defs></svg>