<svg width="28" height="27" fill="none" xmlns="http://www.w3.org/2000/svg"><path d="M2 12.577c0-5.221 0-7.833 1.623-9.454C5.243 1.5 7.856 1.5 13.077 1.5h1.846c5.221 0 7.833 0 9.454 1.623C26 4.743 26 7.356 26 12.577v1.846c0 5.221 0 7.833-1.623 9.454-1.62 1.623-4.233 1.623-9.454 1.623h-1.846c-5.221 0-7.833 0-9.454-1.623C2 22.257 2 19.644 2 14.423v-1.846Z" stroke="#fff" stroke-width="2.5" stroke-linecap="round" stroke-linejoin="round"/><g clip-path="url('#clip0_137_407')"><path d="M13.17 19.1a1.015 1.015 0 1 0 2.03 0v-4.4h4.4a1.015 1.015 0 0 0 0-2.03h-4.4v-4.4a1.015 1.015 0 1 0-2.03 0v4.4h-4.4a1.015 1.015 0 0 0 0 2.03h4.4v4.4Z" fill="#fff"/></g><defs><clipPath id="clip0_137_407"><path fill="#fff" transform="translate(6.062 5.562)" d="M0 0h16.246v16.246H0z"/></clipPath></defs></svg>