<svg width="26" height="26" fill="none" xmlns="http://www.w3.org/2000/svg"><path d="M1 12.077c0-5.221 0-7.833 1.623-9.454C4.243 1 6.856 1 12.077 1h1.846c5.221 0 7.833 0 9.454 1.623C25 4.243 25 6.856 25 12.077v1.846c0 5.221 0 7.833-1.623 9.454C21.757 25 19.144 25 13.923 25h-1.846c-5.221 0-7.833 0-9.454-1.623C1 21.757 1 19.144 1 13.923v-1.846Z" stroke="#000" stroke-width="2" stroke-linecap="round" stroke-linejoin="round"/><g clip-path="url('#clip0_137_667')"><path d="M12.17 18.6a1.015 1.015 0 0 0 2.03 0v-4.4h4.4a1.015 1.015 0 0 0 0-2.03h-4.4v-4.4a1.015 1.015 0 0 0-2.03 0v4.4h-4.4a1.015 1.015 0 0 0 0 2.03h4.4v4.4Z" fill="#000"/></g><defs><clipPath id="clip0_137_667"><path fill="#fff" transform="translate(5.062 5.062)" d="M0 0h16.246v16.246H0z"/></clipPath></defs></svg>