<svg width="26" height="26" fill="none" xmlns="http://www.w3.org/2000/svg"><path d="M2.167 20.583V9.75a2.167 2.167 0 0 1 2.166-2.167h.542a2.167 2.167 0 0 0 1.733-.866L9.013 3.51a.65.65 0 0 1 .52-.26h6.934a.65.65 0 0 1 .52.26l2.405 3.207a2.166 2.166 0 0 0 1.733.866h.542a2.167 2.167 0 0 1 2.166 2.167v10.833a2.167 2.167 0 0 1-2.166 2.167H4.333a2.167 2.167 0 0 1-2.166-2.167Z" stroke="#fff" stroke-width="3" stroke-linecap="round" stroke-linejoin="round"/><path d="M13 18.417a4.334 4.334 0 1 0 0-8.668 4.334 4.334 0 0 0 0 8.668Z" stroke="#fff" stroke-width="3" stroke-linecap="round" stroke-linejoin="round"/></svg>