<svg width="29" height="29" fill="none" xmlns="http://www.w3.org/2000/svg"><path d="M22.958 2.417H6.042a2.417 2.417 0 0 0-2.417 2.416V21.75a2.424 2.424 0 0 0 2.417 2.417h4.833l2.767 2.767a1.203 1.203 0 0 0 1.704 0l2.779-2.767h4.833a2.424 2.424 0 0 0 2.417-2.417V4.833a2.424 2.424 0 0 0-2.417-2.416ZM14.5 6.404c1.8 0 3.262 1.462 3.262 3.263 0 1.8-1.462 3.262-3.262 3.262a3.264 3.264 0 0 1-3.262-3.262c0-1.8 1.462-3.263 3.262-3.263Zm7.25 12.93H7.25v-1.088c0-2.417 4.833-3.746 7.25-3.746s7.25 1.33 7.25 3.746v1.087Z" stroke="#ACAAAA" stroke-width="2"/></svg>