<svg width="26" height="26" fill="none" xmlns="http://www.w3.org/2000/svg"><g clip-path="url('#clip0_1_33')"><path d="M13 2.167c5.983 0 10.833 4.85 10.833 10.833 0 5.983-4.85 10.833-10.833 10.833a10.79 10.79 0 0 1-5.268-1.365l-.33-.192-3.285.966a1.095 1.095 0 0 1-1.387-1.24l.028-.119.966-3.284A10.79 10.79 0 0 1 2.167 13C2.167 7.017 7.017 2.167 13 2.167Zm0 2.166A8.667 8.667 0 0 0 5.678 17.64c.214.338.306.754.234 1.167l-.042.176-.478 1.626 1.626-.477c.469-.14.956-.055 1.343.191A8.667 8.667 0 1 0 13 4.333Zm-2.39 6.276a1.083 1.083 0 0 1 1.43-.09l.1.09 2.485 2.484 2.484-2.484a1.083 1.083 0 0 1 1.622 1.43l-.09.102-3.25 3.25a1.083 1.083 0 0 1-1.43.09l-.102-.09-2.484-2.484-2.484 2.484a1.083 1.083 0 0 1-1.622-1.43l.09-.102 3.25-3.25Z" fill="#000"/></g><defs><clipPath id="clip0_1_33"><path fill="#fff" d="M0 0h26v26H0z"/></clipPath></defs></svg>