<svg width="40" height="43" fill="none" xmlns="http://www.w3.org/2000/svg"><g filter="url('#filter0_d_137_301')"><path d="M15.25 15.833v15.834m18.208-16.625H6.542m-.792-.159c0-3.546 0-5.32.69-6.675A6.333 6.333 0 0 1 9.208 5.44c1.355-.69 3.129-.69 6.675-.69h8.234c3.546 0 5.32 0 6.675.69a6.334 6.334 0 0 1 2.768 2.768c.69 1.355.69 3.129.69 6.675v8.234c0 3.546 0 5.32-.69 6.675a6.334 6.334 0 0 1-2.768 2.768c-1.355.69-3.129.69-6.675.69h-8.234c-3.546 0-5.32 0-6.675-.69a6.334 6.334 0 0 1-2.768-2.768c-.69-1.355-.69-3.129-.69-6.675v-8.234Z" stroke="#fff" stroke-width="3" stroke-linecap="round" stroke-linejoin="round" shape-rendering="crispEdges"/></g><defs><filter id="filter0_d_137_301" x=".25" y="3.25" width="39.5" height="39.5" filterUnits="userSpaceOnUse" color-interpolation-filters="sRGB"><feFlood flood-opacity="0" result="BackgroundImageFix"/><feColorMatrix in="SourceAlpha" values="0 0 0 0 0 0 0 0 0 0 0 0 0 0 0 0 0 0 127 0" result="hardAlpha"/><feOffset dy="4"/><feGaussianBlur stdDeviation="2"/><feComposite in2="hardAlpha" operator="out"/><feColorMatrix values="0 0 0 0 0 0 0 0 0 0 0 0 0 0 0 0 0 0 0.35 0"/><feBlend in2="BackgroundImageFix" result="effect1_dropShadow_137_301"/><feBlend in="SourceGraphic" in2="effect1_dropShadow_137_301" result="shape"/></filter></defs></svg>