<svg width="26" height="27" fill="none" xmlns="http://www.w3.org/2000/svg"><g clip-path="url('#clip0_137_432')" fill="#fff" stroke="#000"><path d="M19.44.5h-4.254l.65 1.182 3.605 6.5H26V7.059C26 3.455 23.046.5 19.44.5ZM10.577 8.182h7.505l-3.605-6.5L13.827.5H6.323l.65 1.182 3.604 6.5ZM9.218 8.182 5.673 1.74 5.082.677C2.186 1.387 0 3.987 0 7.06v1.123h9.218ZM20.09 9.364H0V19.94C0 23.546 2.955 26.5 6.56 26.5h12.88c3.605 0 6.56-2.954 6.56-6.56V9.365H20.091ZM10.047 13.5c0-.236.177-.414.295-.473s.295-.118.473-.118c.177 0 .354.06.531.118l6.028 3.841c.177.118.295.296.295.473s-.118.354-.295.473l-6.028 3.84a.886.886 0 0 1-1.004 0 .563.563 0 0 1-.295-.472V13.5Z"/></g><defs><clipPath id="clip0_137_432"><path fill="#fff" transform="translate(0 .5)" d="M0 0h26v26H0z"/></clipPath></defs></svg>