<svg width="26" height="27" fill="none" xmlns="http://www.w3.org/2000/svg"><g clip-path="url('#clip0_10_2')"><path d="M18.2.717H7.8C3.618.717.217 4.118.217 8.3v10.4c0 4.182 3.401 7.583 7.583 7.583h10.4c4.182 0 7.583-3.401 7.583-7.583V8.3c0-4.182-3.401-7.583-7.583-7.583Zm0 2.166a5.423 5.423 0 0 1 4.962 3.25h-4.009l-1.876-3.25h.923Zm-3.428 0 1.877 3.25h-5.296l-1.876-3.25h5.295Zm-7.76.065 1.837 3.185h-6.01A5.428 5.428 0 0 1 7.01 2.948ZM23.616 18.7a5.424 5.424 0 0 1-5.417 5.417H7.8A5.424 5.424 0 0 1 2.383 18.7V8.3h21.234v10.4Zm-13.507.49v-6.613a.82.82 0 0 1 1.226-.71l5.729 3.306a.818.818 0 0 1 0 1.417l-5.729 3.306a.814.814 0 0 1-1.226-.706Z" fill="#000"/></g><defs><clipPath id="clip0_10_2"><path fill="#fff" transform="translate(0 .5)" d="M0 0h26v26H0z"/></clipPath></defs></svg>