<svg width="26" height="27" fill="none" xmlns="http://www.w3.org/2000/svg"><g clip-path="url('#clip0_137_691')"><path d="M17.983 1h-10.4C3.402 1 0 4.402 0 8.583v10.4c0 4.182 3.402 7.584 7.583 7.584h10.4c4.182 0 7.584-3.402 7.584-7.584v-10.4C25.567 4.402 22.165 1 17.983 1Zm0 2.167a5.423 5.423 0 0 1 4.962 3.25h-4.008l-1.877-3.25h.923Zm-3.427 0 1.876 3.25h-5.295L9.26 3.167h5.296Zm-7.761.065 1.837 3.185h-6.01a5.428 5.428 0 0 1 4.173-3.185ZM23.4 18.983a5.424 5.424 0 0 1-5.417 5.417h-10.4a5.424 5.424 0 0 1-5.416-5.417v-10.4H23.4v10.4Zm-13.507.49V12.86a.82.82 0 0 1 1.226-.71l5.729 3.306a.818.818 0 0 1 0 1.417l-5.729 3.306a.814.814 0 0 1-1.226-.706Z" fill="#ACAAAA"/></g><defs><clipPath id="clip0_137_691"><path fill="#fff" transform="translate(0 .5)" d="M0 0h26v26H0z"/></clipPath></defs></svg>