<svg width="20" height="20" fill="none" xmlns="http://www.w3.org/2000/svg"><g clip-path="url('#clip0_137_686')"><path d="M9.875 10.685a6.908 6.908 0 0 1 3.874 5.824.938.938 0 1 1-1.873.107 5.013 5.013 0 0 0-5-4.741 5.013 5.013 0 0 0-5.002 4.741.938.938 0 0 1-1.872-.106 6.912 6.912 0 0 1 3.875-5.825 4.375 4.375 0 1 1 5.998 0ZM16.563 0a.938.938 0 0 1 .937.938V2.5h1.563a.937.937 0 0 1 0 1.875H17.5v1.563a.938.938 0 0 1-1.875 0V4.375h-1.562a.938.938 0 0 1 0-1.875h1.562V.937A.937.937 0 0 1 16.563 0ZM6.875 5a2.5 2.5 0 1 0-.113 4.999A2.5 2.5 0 0 0 6.875 5Z" fill="#1F1F1F"/></g><defs><clipPath id="clip0_137_686"><path fill="#fff" d="M0 0h20v20H0z"/></clipPath></defs></svg>