<svg width="27" height="26" fill="none" xmlns="http://www.w3.org/2000/svg"><path d="M18.078 3.656c-2.04 0-3.851.806-5.078 2.19-1.227-1.384-3.038-2.19-5.078-2.19a6.711 6.711 0 0 0-6.703 6.703c0 7.347 10.746 13.218 11.203 13.464a1.218 1.218 0 0 0 1.156 0c.457-.246 11.203-6.117 11.203-13.464a6.711 6.711 0 0 0-6.703-6.703Zm-.558 14.459a33.376 33.376 0 0 1-4.52 3.23 33.383 33.383 0 0 1-4.52-3.23c-2.201-1.888-4.824-4.768-4.824-7.756a4.266 4.266 0 0 1 4.266-4.265c1.808 0 3.321.954 3.95 2.492a1.219 1.219 0 0 0 2.256 0c.629-1.538 2.142-2.492 3.95-2.492a4.266 4.266 0 0 1 4.266 4.265c0 2.988-2.623 5.868-4.824 7.756Z" fill="#000"/><circle cx="22.5" cy="6.5" r="4.5" fill="#FF001F"/></svg>