<svg width="14" height="14" fill="none" xmlns="http://www.w3.org/2000/svg"><path d="m6.037 11.55.963.962.963-.962c-.263-.263-.613-.438-.963-.438s-.787.175-.963.438ZM7 4.025c2.363 0 4.463.962 6.037 2.45L14 5.513a9.997 9.997 0 0 0-7-2.888 9.997 9.997 0 0 0-7 2.888l.963.962C2.538 4.988 4.638 4.025 7 4.025Z" fill="#000"/><path d="m2.013 7.525.962.962A5.926 5.926 0 0 1 7 6.912c1.575 0 2.975.613 4.025 1.663l.963-.963C10.762 6.212 8.925 5.425 7 5.425c-1.925 0-3.762.787-4.987 2.1Z" fill="#000"/><path d="m4.025 9.537.962.963c.525-.525 1.225-.787 2.013-.787.787 0 1.487.35 2.012.787l.963-.963C9.275 8.75 8.137 8.313 7 8.313c-1.138 0-2.275.438-2.975 1.226Z" fill="#000"/></svg>