<svg width="27" height="27" viewBox="0 0 27 27" fill="none" xmlns="http://www.w3.org/2000/svg">
<path d="M1.6875 3.375C1.6875 2.92745 1.86529 2.49822 2.18176 2.18176C2.49822 1.86529 2.92745 1.6875 3.375 1.6875H6.75C7.19755 1.6875 7.62677 1.86529 7.94324 2.18176C8.25971 2.49822 8.4375 2.92745 8.4375 3.375V6.75C8.4375 7.19755 8.25971 7.62677 7.94324 7.94324C7.62677 8.25971 7.19755 8.4375 6.75 8.4375H3.375C2.92745 8.4375 2.49822 8.25971 2.18176 7.94324C1.86529 7.62677 1.6875 7.19755 1.6875 6.75V3.375ZM10.125 3.375C10.125 2.92745 10.3028 2.49822 10.6193 2.18176C10.9357 1.86529 11.3649 1.6875 11.8125 1.6875H15.1875C15.6351 1.6875 16.0643 1.86529 16.3807 2.18176C16.6972 2.49822 16.875 2.92745 16.875 3.375V6.75C16.875 7.19755 16.6972 7.62677 16.3807 7.94324C16.0643 8.25971 15.6351 8.4375 15.1875 8.4375H11.8125C11.3649 8.4375 10.9357 8.25971 10.6193 7.94324C10.3028 7.62677 10.125 7.19755 10.125 6.75V3.375ZM18.5625 3.375C18.5625 2.92745 18.7403 2.49822 19.0568 2.18176C19.3732 1.86529 19.8024 1.6875 20.25 1.6875H23.625C24.0726 1.6875 24.5018 1.86529 24.8182 2.18176C25.1347 2.49822 25.3125 2.92745 25.3125 3.375V6.75C25.3125 7.19755 25.1347 7.62677 24.8182 7.94324C24.5018 8.25971 24.0726 8.4375 23.625 8.4375H20.25C19.8024 8.4375 19.3732 8.25971 19.0568 7.94324C18.7403 7.62677 18.5625 7.19755 18.5625 6.75V3.375ZM1.6875 11.8125C1.6875 11.3649 1.86529 10.9357 2.18176 10.6193C2.49822 10.3028 2.92745 10.125 3.375 10.125H6.75C7.19755 10.125 7.62677 10.3028 7.94324 10.6193C8.25971 10.9357 8.4375 11.3649 8.4375 11.8125V15.1875C8.4375 15.6351 8.25971 16.0643 7.94324 16.3807C7.62677 16.6972 7.19755 16.875 6.75 16.875H3.375C2.92745 16.875 2.49822 16.6972 2.18176 16.3807C1.86529 16.0643 1.6875 15.6351 1.6875 15.1875V11.8125ZM10.125 11.8125C10.125 11.3649 10.3028 10.9357 10.6193 10.6193C10.9357 10.3028 11.3649 10.125 11.8125 10.125H15.1875C15.6351 10.125 16.0643 10.3028 16.3807 10.6193C16.6972 10.9357 16.875 11.3649 16.875 11.8125V15.1875C16.875 15.6351 16.6972 16.0643 16.3807 16.3807C16.0643 16.6972 15.6351 16.875 15.1875 16.875H11.8125C11.3649 16.875 10.9357 16.6972 10.6193 16.3807C10.3028 16.0643 10.125 15.6351 10.125 15.1875V11.8125ZM18.5625 11.8125C18.5625 11.3649 18.7403 10.9357 19.0568 10.6193C19.3732 10.3028 19.8024 10.125 20.25 10.125H23.625C24.0726 10.125 24.5018 10.3028 24.8182 10.6193C25.1347 10.9357 25.3125 11.3649 25.3125 11.8125V15.1875C25.3125 15.6351 25.1347 16.0643 24.8182 16.3807C24.5018 16.6972 24.0726 16.875 23.625 16.875H20.25C19.8024 16.875 19.3732 16.6972 19.0568 16.3807C18.7403 16.0643 18.5625 15.6351 18.5625 15.1875V11.8125ZM1.6875 20.25C1.6875 19.8024 1.86529 19.3732 2.18176 19.0568C2.49822 18.7403 2.92745 18.5625 3.375 18.5625H6.75C7.19755 18.5625 7.62677 18.7403 7.94324 19.0568C8.25971 19.3732 8.4375 19.8024 8.4375 20.25V23.625C8.4375 24.0726 8.25971 24.5018 7.94324 24.8182C7.62677 25.1347 7.19755 25.3125 6.75 25.3125H3.375C2.92745 25.3125 2.49822 25.1347 2.18176 24.8182C1.86529 24.5018 1.6875 24.0726 1.6875 23.625V20.25ZM10.125 20.25C10.125 19.8024 10.3028 19.3732 10.6193 19.0568C10.9357 18.7403 11.3649 18.5625 11.8125 18.5625H15.1875C15.6351 18.5625 16.0643 18.7403 16.3807 19.0568C16.6972 19.3732 16.875 19.8024 16.875 20.25V23.625C16.875 24.0726 16.6972 24.5018 16.3807 24.8182C16.0643 25.1347 15.6351 25.3125 15.1875 25.3125H11.8125C11.3649 25.3125 10.9357 25.1347 10.6193 24.8182C10.3028 24.5018 10.125 24.0726 10.125 23.625V20.25ZM18.5625 20.25C18.5625 19.8024 18.7403 19.3732 19.0568 19.0568C19.3732 18.7403 19.8024 18.5625 20.25 18.5625H23.625C24.0726 18.5625 24.5018 18.7403 24.8182 19.0568C25.1347 19.3732 25.3125 19.8024 25.3125 20.25V23.625C25.3125 24.0726 25.1347 24.5018 24.8182 24.8182C24.5018 25.1347 24.0726 25.3125 23.625 25.3125H20.25C19.8024 25.3125 19.3732 25.1347 19.0568 24.8182C18.7403 24.5018 18.5625 24.0726 18.5625 23.625V20.25Z" fill="#1D1D1D"/>
</svg>
