<svg width="36" height="37" viewBox="0 0 36 37" fill="none" xmlns="http://www.w3.org/2000/svg">
<g filter="url(#filter0_d_137_293)">
<path d="M28.4375 11.6538L27.98 11.3987L27.8387 11.3187C27.498 11.1142 27.2109 10.8314 27.0012 10.4937C26.9787 10.46 26.9587 10.4237 26.9187 10.3537C26.6492 9.92116 26.5184 9.41654 26.5437 8.9075L26.5512 8.37625C26.5662 7.52625 26.5737 7.09875 26.4537 6.71625C26.3476 6.37593 26.1698 6.06224 25.9325 5.79625C25.665 5.49625 25.2937 5.28125 24.55 4.85375L23.9325 4.4975C23.1925 4.07125 22.8212 3.8575 22.4275 3.77625C22.0796 3.70426 21.7204 3.70725 21.3737 3.785C20.9825 3.8725 20.6162 4.0925 19.885 4.53L19.8812 4.5325L19.4387 4.79625C19.3687 4.83875 19.3325 4.85875 19.2975 4.87875C18.95 5.0725 18.5625 5.17875 18.1637 5.19125C18.1237 5.19375 18.0825 5.19375 18.0012 5.19375L17.8387 5.1925C17.4399 5.1798 17.0498 5.07179 16.7012 4.8775C16.6662 4.85875 16.6325 4.8375 16.5625 4.795L16.1162 4.5275C15.38 4.085 15.0112 3.865 14.6175 3.77625C14.2695 3.69837 13.909 3.69581 13.56 3.76875C13.165 3.85125 12.795 4.06625 12.0537 4.49625L12.05 4.4975L11.44 4.85125L11.4337 4.85625C10.6987 5.28125 10.33 5.49625 10.065 5.795C9.82882 6.06049 9.65198 6.37328 9.54623 6.7125C9.42748 7.09625 9.43373 7.52375 9.44873 8.37875L9.45748 8.90875C9.45748 8.99 9.46123 9.03 9.45998 9.06875C9.45351 9.5229 9.32343 9.96671 9.08373 10.3525C9.04248 10.4225 9.02373 10.4575 9.00248 10.49C8.79172 10.8302 8.50236 11.1149 8.15873 11.32L8.01873 11.3987L7.56748 11.6487C6.81498 12.065 6.43873 12.2737 6.16623 12.5712C5.92395 12.8335 5.74067 13.1447 5.62873 13.4837C5.50373 13.8675 5.50373 14.2963 5.50498 15.1563L5.50748 15.86C5.50873 16.7137 5.51123 17.14 5.63748 17.5212C5.74896 17.8582 5.93091 18.1676 6.17123 18.4288C6.44373 18.7238 6.81623 18.9312 7.56248 19.3462L8.00998 19.595C8.08623 19.6375 8.12498 19.6575 8.16123 19.68C8.55295 19.9148 8.87285 20.2525 9.08623 20.6562L9.16998 20.8063C9.38112 21.2049 9.48046 21.6532 9.45748 22.1038L9.44873 22.6125C9.43373 23.47 9.42748 23.9 9.54748 24.2837C9.65373 24.6237 9.83123 24.9375 10.0687 25.2037C10.3362 25.5037 10.7087 25.7175 11.4512 26.1462L12.0687 26.5025C12.81 26.9287 13.18 27.1425 13.5737 27.2237C13.9216 27.2957 14.2808 27.2928 14.6275 27.215C15.02 27.1275 15.3862 26.9075 16.12 26.4675L16.5625 26.2025L16.7037 26.12C17.0512 25.9275 17.4387 25.82 17.8375 25.8075L18 25.8062H18.1625C18.56 25.8187 18.95 25.9275 19.3 26.1212L19.415 26.19L19.885 26.4725C20.6225 26.915 20.99 27.135 21.3837 27.2225C21.7315 27.3012 22.0921 27.3046 22.4412 27.2325C22.835 27.15 23.2075 26.9337 23.9487 26.5037L24.5675 26.145C25.3025 25.7175 25.6712 25.5037 25.9362 25.205C26.1737 24.9387 26.3487 24.6262 26.455 24.2875C26.5737 23.9062 26.5675 23.4825 26.5525 22.64L26.5425 22.09V21.9312C26.5484 21.4768 26.678 21.0325 26.9175 20.6463L26.9987 20.5087C27.2095 20.1685 27.4989 19.8839 27.8425 19.6787L27.98 19.6025L27.9825 19.6012L28.4337 19.3512C29.1862 18.9337 29.5625 18.7263 29.8362 18.4288C30.0787 18.1663 30.2612 17.8537 30.3725 17.5162C30.4975 17.135 30.4975 16.7075 30.495 15.8575L30.4925 15.14C30.4912 14.2862 30.49 13.8587 30.3637 13.4775C30.2517 13.1409 30.0693 12.832 29.8287 12.5712C29.5575 12.2762 29.185 12.0687 28.44 11.655L28.4375 11.6538Z" stroke="white" stroke-width="2" stroke-linecap="round" stroke-linejoin="round"/>
<path d="M13 15.5C13 16.8261 13.5268 18.0979 14.4645 19.0355C15.4021 19.9732 16.6739 20.5 18 20.5C19.3261 20.5 20.5979 19.9732 21.5355 19.0355C22.4732 18.0979 23 16.8261 23 15.5C23 14.1739 22.4732 12.9021 21.5355 11.9645C20.5979 11.0268 19.3261 10.5 18 10.5C16.6739 10.5 15.4021 11.0268 14.4645 11.9645C13.5268 12.9021 13 14.1739 13 15.5Z" stroke="white" stroke-width="2" stroke-linecap="round" stroke-linejoin="round"/>
</g>
<defs>
<filter id="filter0_d_137_293" x="0.504395" y="2.71588" width="34.9916" height="33.5683" filterUnits="userSpaceOnUse" color-interpolation-filters="sRGB">
<feFlood flood-opacity="0" result="BackgroundImageFix"/>
<feColorMatrix in="SourceAlpha" type="matrix" values="0 0 0 0 0 0 0 0 0 0 0 0 0 0 0 0 0 0 127 0" result="hardAlpha"/>
<feOffset dy="4"/>
<feGaussianBlur stdDeviation="2"/>
<feComposite in2="hardAlpha" operator="out"/>
<feColorMatrix type="matrix" values="0 0 0 0 0 0 0 0 0 0 0 0 0 0 0 0 0 0 0.35 0"/>
<feBlend mode="normal" in2="BackgroundImageFix" result="effect1_dropShadow_137_293"/>
<feBlend mode="normal" in="SourceGraphic" in2="effect1_dropShadow_137_293" result="shape"/>
</filter>
</defs>
</svg>
