<svg width="10" height="9" viewBox="0 0 10 9" fill="none" xmlns="http://www.w3.org/2000/svg">
<g clip-path="url(#clip0_137_487)">
<path d="M9.19102 0.110532C9.34018 0.216001 9.42857 0.384751 9.42857 0.56229V6.46854C9.42857 7.24549 8.63672 7.87479 7.66071 7.87479C6.68471 7.87479 5.89286 7.24549 5.89286 6.46854C5.89286 5.69159 6.68471 5.06229 7.66071 5.06229C7.86696 5.06229 8.06585 5.09042 8.25 5.14315V2.58377L3.53571 3.93377V7.59354C3.53571 8.37049 2.74386 8.99979 1.76786 8.99979C0.791853 8.99979 0 8.37049 0 7.59354C0 6.81659 0.791853 6.18729 1.76786 6.18729C1.97411 6.18729 2.17299 6.21542 2.35714 6.26815V2.24979C2.35714 2.00194 2.5284 1.78221 2.77701 1.71014L8.66987 0.0226412C8.84849 -0.0283354 9.04185 0.00330525 9.19102 0.110532Z" fill="#F0F0F0"/>
</g>
<defs>
<clipPath id="clip0_137_487">
<rect width="9.42857" height="9" fill="white"/>
</clipPath>
</defs>
</svg>
