<svg width="15" height="15" viewBox="0 0 15 15" fill="none" xmlns="http://www.w3.org/2000/svg">
<path d="M3.04688 3.75C2.48743 3.75 1.95091 3.97224 1.55532 4.36782C1.15974 4.76341 0.9375 5.29993 0.9375 5.85938V9.14062C0.9375 9.70007 1.15974 10.2366 1.55532 10.6322C1.95091 11.0278 2.48743 11.25 3.04688 11.25H11.0156C11.5751 11.25 12.1116 11.0278 12.5072 10.6322C12.9028 10.2366 13.125 9.70007 13.125 9.14062V8.90625H13.3594C13.5459 8.90625 13.7247 8.83217 13.8566 8.70031C13.9884 8.56845 14.0625 8.38961 14.0625 8.20312V6.79688C14.0625 6.61039 13.9884 6.43155 13.8566 6.29969C13.7247 6.16783 13.5459 6.09375 13.3594 6.09375H13.125V5.85938C13.125 5.29993 12.9028 4.76341 12.5072 4.36782C12.1116 3.97224 11.5751 3.75 11.0156 3.75H3.04688Z" fill="white"/>
</svg>
