<svg width="26" height="26" viewBox="0 0 26 26" fill="none" xmlns="http://www.w3.org/2000/svg">
<path d="M1 12.0769C1 6.856 0.999999 4.24369 2.62277 2.62277C4.24369 0.999999 6.856 1 12.0769 1H13.9231C19.144 1 21.7563 0.999999 23.3772 2.62277C25 4.24369 25 6.856 25 12.0769V13.9231C25 19.144 25 21.7563 23.3772 23.3772C21.7563 25 19.144 25 13.9231 25H12.0769C6.856 25 4.24369 25 2.62277 23.3772C0.999999 21.7563 1 19.144 1 13.9231V12.0769Z" stroke="black" stroke-width="2" stroke-linecap="round" stroke-linejoin="round"/>
<g clip-path="url(#clip0_137_667)">
<path d="M12.1693 18.6C12.1693 18.8693 12.2763 19.1276 12.4667 19.318C12.6571 19.5084 12.9154 19.6154 13.1847 19.6154C13.454 19.6154 13.7122 19.5084 13.9027 19.318C14.0931 19.1276 14.2001 18.8693 14.2001 18.6V14.2H18.6001C18.8694 14.2 19.1276 14.093 19.318 13.9026C19.5085 13.7122 19.6154 13.4539 19.6154 13.1846C19.6154 12.9153 19.5085 12.6571 19.318 12.4666C19.1276 12.2762 18.8694 12.1692 18.6001 12.1692H14.2001V7.76923C14.2001 7.49993 14.0931 7.24167 13.9027 7.05124C13.7122 6.86082 13.454 6.75385 13.1847 6.75385C12.9154 6.75385 12.6571 6.86082 12.4667 7.05124C12.2763 7.24167 12.1693 7.49993 12.1693 7.76923V12.1692H7.76929C7.49999 12.1692 7.24173 12.2762 7.05131 12.4666C6.86088 12.6571 6.75391 12.9153 6.75391 13.1846C6.75391 13.4539 6.86088 13.7122 7.05131 13.9026C7.24173 14.093 7.49999 14.2 7.76929 14.2H12.1693V18.6Z" fill="black"/>
</g>
<defs>
<clipPath id="clip0_137_667">
<rect width="16.2462" height="16.2462" fill="white" transform="translate(5.06152 5.06152)"/>
</clipPath>
</defs>
</svg>
