<svg width="28" height="27" viewBox="0 0 28 27" fill="none" xmlns="http://www.w3.org/2000/svg">
<path d="M2 12.5769C2 7.356 2 4.74369 3.62277 3.12277C5.24369 1.5 7.856 1.5 13.0769 1.5H14.9231C20.144 1.5 22.7563 1.5 24.3772 3.12277C26 4.74369 26 7.356 26 12.5769V14.4231C26 19.644 26 22.2563 24.3772 23.8772C22.7563 25.5 20.144 25.5 14.9231 25.5H13.0769C7.856 25.5 5.24369 25.5 3.62277 23.8772C2 22.2563 2 19.644 2 14.4231V12.5769Z" stroke="white" stroke-width="2.5" stroke-linecap="round" stroke-linejoin="round"/>
<g clip-path="url(#clip0_137_407)">
<path d="M13.1692 19.1C13.1692 19.3693 13.2761 19.6276 13.4666 19.818C13.657 20.0084 13.9153 20.1154 14.1846 20.1154C14.4539 20.1154 14.7121 20.0084 14.9025 19.818C15.093 19.6276 15.1999 19.3693 15.1999 19.1V14.7H19.5999C19.8692 14.7 20.1275 14.593 20.3179 14.4026C20.5083 14.2122 20.6153 13.9539 20.6153 13.6846C20.6153 13.4153 20.5083 13.1571 20.3179 12.9666C20.1275 12.7762 19.8692 12.6692 19.5999 12.6692H15.1999V8.26923C15.1999 7.99993 15.093 7.74167 14.9025 7.55124C14.7121 7.36082 14.4539 7.25385 14.1846 7.25385C13.9153 7.25385 13.657 7.36082 13.4666 7.55124C13.2761 7.74167 13.1692 7.99993 13.1692 8.26923V12.6692H8.76917C8.49987 12.6692 8.24161 12.7762 8.05118 12.9666C7.86076 13.1571 7.75378 13.4153 7.75378 13.6846C7.75378 13.9539 7.86076 14.2122 8.05118 14.4026C8.24161 14.593 8.49987 14.7 8.76917 14.7H13.1692V19.1Z" fill="white"/>
</g>
<defs>
<clipPath id="clip0_137_407">
<rect width="16.2462" height="16.2462" fill="white" transform="translate(6.06152 5.56152)"/>
</clipPath>
</defs>
</svg>
