<svg width="23" height="23" viewBox="0 0 23 23" fill="none" xmlns="http://www.w3.org/2000/svg">
<path fill-rule="evenodd" clip-rule="evenodd" d="M11.5 13.6908L12.903 14.8939L17.1982 18.5739C17.266 18.6318 17.349 18.6691 17.4372 18.6813C17.5255 18.6936 17.6154 18.6804 17.6964 18.6432C17.7774 18.606 17.8461 18.5465 17.8944 18.4715C17.9426 18.3966 17.9684 18.3094 17.9688 18.2203V6.46875C17.9688 5.89688 17.7416 5.34843 17.3372 4.94405C16.9328 4.53968 16.3844 4.3125 15.8125 4.3125H7.1875C6.61563 4.3125 6.06718 4.53968 5.6628 4.94405C5.25843 5.34843 5.03125 5.89688 5.03125 6.46875V18.2203C5.0313 18.3096 5.05692 18.3969 5.10506 18.4721C5.1532 18.5472 5.22186 18.607 5.30291 18.6443C5.38396 18.6817 5.47401 18.695 5.56242 18.6828C5.65082 18.6706 5.73387 18.6333 5.80175 18.5754L10.097 14.8954L11.5 13.6908ZM20.125 6.46875C20.125 5.325 19.6706 4.2281 18.8619 3.41935C18.0531 2.6106 16.9562 2.15625 15.8125 2.15625H7.1875C6.04375 2.15625 4.94685 2.6106 4.1381 3.41935C3.32935 4.2281 2.875 5.325 2.875 6.46875V18.2203C2.87483 18.7222 3.01861 19.2135 3.28928 19.6361C3.55995 20.0587 3.94615 20.3948 4.40208 20.6046C4.858 20.8143 5.36451 20.8888 5.86154 20.8194C6.35856 20.7499 6.82523 20.5394 7.20619 20.2127L11.5 16.5312L15.7938 20.2113C16.1746 20.5378 16.641 20.7483 17.1378 20.8179C17.6345 20.8874 18.1408 20.8131 18.5966 20.6037C19.0524 20.3944 19.4387 20.0587 19.7096 19.6365C19.9804 19.2143 20.1246 18.7234 20.125 18.2218V6.46875Z" fill="black"/>
</svg>
