<svg width="53" height="48" viewBox="0 0 53 48" fill="none" xmlns="http://www.w3.org/2000/svg">
<g filter="url(#filter0_d_137_465)">
<path d="M33.2394 10C30.4269 10 27.9308 11.1102 26.2396 13.0183C24.5484 11.1102 22.0523 10 19.2398 10C16.7901 10.003 14.4417 10.9774 12.7095 12.7095C10.9774 14.4417 10.003 16.7901 10 19.2398C10 29.3671 24.813 37.4589 25.443 37.7991C25.6878 37.931 25.9615 38 26.2396 38C26.5177 38 26.7914 37.931 27.0362 37.7991C27.6662 37.4589 42.4792 29.3671 42.4792 19.2398C42.4762 16.7901 41.5018 14.4417 39.7697 12.7095C38.0375 10.9774 35.6891 10.003 33.2394 10Z" stroke="white" stroke-width="3"/>
</g>
<defs>
<filter id="filter0_d_137_465" x="0.2" y="0.199998" width="52.0792" height="47.6" filterUnits="userSpaceOnUse" color-interpolation-filters="sRGB">
<feFlood flood-opacity="0" result="BackgroundImageFix"/>
<feColorMatrix in="SourceAlpha" type="matrix" values="0 0 0 0 0 0 0 0 0 0 0 0 0 0 0 0 0 0 127 0" result="hardAlpha"/>
<feOffset/>
<feGaussianBlur stdDeviation="4.15"/>
<feColorMatrix type="matrix" values="0 0 0 0 0 0 0 0 0 0 0 0 0 0 0 0 0 0 0.24 0"/>
<feBlend mode="normal" in2="BackgroundImageFix" result="effect1_dropShadow_137_465"/>
<feBlend mode="normal" in="SourceGraphic" in2="effect1_dropShadow_137_465" result="shape"/>
</filter>
</defs>
</svg>
