<svg width="26" height="27" viewBox="0 0 26 27" fill="none" xmlns="http://www.w3.org/2000/svg">
<path d="M24.7503 25.2503L19.2612 19.7612M19.2612 19.7612C20.2001 18.8223 20.9449 17.7076 21.4531 16.4808C21.9612 15.2541 22.2227 13.9392 22.2227 12.6114C22.2227 11.2835 21.9612 9.96869 21.4531 8.74192C20.9449 7.51515 20.2001 6.40048 19.2612 5.46155C18.3223 4.52262 17.2076 3.77783 15.9808 3.26968C14.7541 2.76154 13.4392 2.5 12.1114 2.5C10.7835 2.5 9.46868 2.76154 8.24192 3.26968C7.01515 3.77783 5.90048 4.52262 4.96155 5.46155C3.0653 7.3578 2 9.92967 2 12.6114C2 15.2931 3.0653 17.8649 4.96155 19.7612C6.8578 21.6574 9.42967 22.7227 12.1114 22.7227C14.7931 22.7227 17.3649 21.6574 19.2612 19.7612Z" stroke="white" stroke-width="2.5" stroke-linecap="round" stroke-linejoin="round"/>
</svg>
