<svg width="23" height="23" viewBox="0 0 23 23" fill="none" xmlns="http://www.w3.org/2000/svg">
<path d="M11.5 20.125C13.2059 20.125 14.8734 19.6192 16.2918 18.6714C17.7102 17.7237 18.8157 16.3767 19.4685 14.8006C20.1213 13.2246 20.2921 11.4904 19.9593 9.81735C19.6265 8.14426 18.805 6.60744 17.5988 5.40121C16.3926 4.19498 14.8557 3.37353 13.1827 3.04073C11.5096 2.70793 9.77537 2.87874 8.19936 3.53154C6.62334 4.18435 5.2763 5.28984 4.32857 6.70821C3.38085 8.12658 2.875 9.79414 2.875 11.5C2.875 12.926 3.22 14.2705 3.83333 15.455L2.875 20.125L7.54496 19.1667C8.72946 19.78 10.075 20.125 11.5 20.125Z" stroke="#232323" stroke-width="2.2" stroke-linecap="round" stroke-linejoin="round"/>
</svg>
