<svg width="26" height="26" viewBox="0 0 26 26" fill="none" xmlns="http://www.w3.org/2000/svg">
<path d="M2.16663 20.5833V9.75C2.16663 9.17536 2.3949 8.62426 2.80123 8.21794C3.20756 7.81161 3.75866 7.58333 4.33329 7.58333H4.87496C5.21132 7.58333 5.54307 7.50502 5.84392 7.35459C6.14478 7.20417 6.40647 6.98576 6.60829 6.71667L9.01329 3.51C9.07384 3.42927 9.15235 3.36375 9.2426 3.31862C9.33286 3.27349 9.43238 3.25 9.53329 3.25H16.4666C16.5675 3.25 16.6671 3.27349 16.7573 3.31862C16.8476 3.36375 16.9261 3.42927 16.9866 3.51L19.3916 6.71667C19.5934 6.98576 19.8551 7.20417 20.156 7.35459C20.4568 7.50502 20.7886 7.58333 21.125 7.58333H21.6666C22.2413 7.58333 22.7924 7.81161 23.1987 8.21794C23.605 8.62426 23.8333 9.17536 23.8333 9.75V20.5833C23.8333 21.158 23.605 21.7091 23.1987 22.1154C22.7924 22.5217 22.2413 22.75 21.6666 22.75H4.33329C3.75866 22.75 3.20756 22.5217 2.80123 22.1154C2.3949 21.7091 2.16663 21.158 2.16663 20.5833Z" stroke="white" stroke-width="3" stroke-linecap="round" stroke-linejoin="round"/>
<path d="M13 18.4167C14.1492 18.4167 15.2514 17.9601 16.0641 17.1475C16.8767 16.3348 17.3333 15.2326 17.3333 14.0833C17.3333 12.9341 16.8767 11.8319 16.0641 11.0192C15.2514 10.2065 14.1492 9.75 13 9.75C11.8507 9.75 10.7485 10.2065 9.93583 11.0192C9.12317 11.8319 8.66663 12.9341 8.66663 14.0833C8.66663 15.2326 9.12317 16.3348 9.93583 17.1475C10.7485 17.9601 11.8507 18.4167 13 18.4167Z" stroke="white" stroke-width="3" stroke-linecap="round" stroke-linejoin="round"/>
</svg>
