<svg width="20" height="20" viewBox="0 0 20 20" fill="none" xmlns="http://www.w3.org/2000/svg">
<path d="M19.0387 19.0387L14.8163 14.8163M14.8163 14.8163C15.5385 14.094 16.1115 13.2366 16.5023 12.2929C16.8932 11.3493 17.0944 10.3379 17.0944 9.31643C17.0944 8.29501 16.8932 7.2836 16.5023 6.33993C16.1115 5.39626 15.5385 4.53882 14.8163 3.81657C14.094 3.09432 13.2366 2.5214 12.2929 2.13052C11.3493 1.73964 10.3378 1.53845 9.31643 1.53845C8.29501 1.53845 7.28359 1.73964 6.33993 2.13052C5.39626 2.5214 4.53882 3.09432 3.81657 3.81657C2.35792 5.27522 1.53845 7.25358 1.53845 9.31643C1.53845 11.3793 2.35792 13.3576 3.81657 14.8163C5.27522 16.2749 7.25358 17.0944 9.31643 17.0944C11.3793 17.0944 13.3576 16.2749 14.8163 14.8163Z" stroke="black" stroke-width="1.5" stroke-linecap="round" stroke-linejoin="round"/>
</svg>
