<svg width="29" height="29" viewBox="0 0 29 29" fill="none" xmlns="http://www.w3.org/2000/svg">
<path d="M22.9583 2.41666H6.04167C5.40073 2.41666 4.78604 2.67128 4.33283 3.12449C3.87961 3.5777 3.625 4.19239 3.625 4.83333V21.75C3.625 23.0792 4.7125 24.1667 6.04167 24.1667H10.875L13.6421 26.9338C14.1133 27.405 14.8746 27.405 15.3458 26.9338L18.125 24.1667H22.9583C24.2875 24.1667 25.375 23.0792 25.375 21.75V4.83333C25.375 3.50416 24.2875 2.41666 22.9583 2.41666ZM14.5 6.40416C16.3004 6.40416 17.7625 7.86625 17.7625 9.66667C17.7625 11.4671 16.3004 12.9292 14.5 12.9292C12.6996 12.9292 11.2375 11.4671 11.2375 9.66667C11.2375 7.86625 12.6996 6.40416 14.5 6.40416ZM21.75 19.3333H7.25V18.2458C7.25 15.8292 12.0833 14.5 14.5 14.5C16.9167 14.5 21.75 15.8292 21.75 18.2458V19.3333Z" stroke="#ACAAAA" stroke-width="2"/>
</svg>
