<svg width="26" height="26" viewBox="0 0 26 26" fill="none" xmlns="http://www.w3.org/2000/svg">
<g clip-path="url(#clip0_1_33)">
<path d="M13 2.16666C18.9832 2.16666 23.8333 7.01674 23.8333 13C23.8333 18.9832 18.9832 23.8333 13 23.8333C11.1561 23.8359 9.34236 23.366 7.73175 22.4683L7.40133 22.2755L4.11667 23.2418C3.93792 23.2945 3.74868 23.3006 3.56689 23.2597C3.3851 23.2187 3.21678 23.132 3.0779 23.0078C2.93901 22.8835 2.83415 22.7259 2.77327 22.5498C2.71239 22.3736 2.69749 22.1849 2.73 22.0014L2.75817 21.8833L3.7245 18.5987C2.70297 16.91 2.16415 14.9736 2.16667 13C2.16667 7.01674 7.01675 2.16666 13 2.16666ZM13 4.33332C11.4483 4.33304 9.92491 4.74938 8.58902 5.53887C7.25314 6.32836 6.15372 7.46204 5.40557 8.82151C4.65743 10.181 4.28801 11.7164 4.33589 13.2674C4.38376 14.8184 4.84718 16.3281 5.67775 17.6388C5.89225 17.9768 5.98433 18.3928 5.91175 18.8056L5.8695 18.9822L5.39175 20.6082L7.01783 20.1305C7.48692 19.9918 7.97442 20.0763 8.36117 20.3222C9.49685 21.0413 10.7842 21.4864 12.1216 21.6223C13.4589 21.7581 14.8095 21.5811 16.0666 21.105C17.3237 20.629 18.4528 19.8671 19.3648 18.8795C20.2767 17.892 20.9464 16.7058 21.321 15.4149C21.6955 14.1239 21.7646 12.7635 21.5228 11.4412C21.2811 10.1189 20.735 8.87098 19.9279 7.79607C19.1208 6.72115 18.0747 5.84873 16.8723 5.24774C15.6699 4.64676 14.3442 4.33371 13 4.33332ZM10.6091 10.6091C10.7956 10.4225 11.0438 10.3105 11.3071 10.2939C11.5704 10.2774 11.8306 10.3575 12.0391 10.5192L12.1409 10.6091L14.625 13.0932L17.1091 10.6091C17.304 10.4148 17.5656 10.302 17.8407 10.2936C18.1159 10.2852 18.3839 10.3818 18.5903 10.5638C18.7967 10.7459 18.9262 10.9997 18.9523 11.2737C18.9784 11.5477 18.8992 11.8213 18.7308 12.0391L18.6409 12.1409L15.3909 15.3909C15.2044 15.5774 14.9562 15.6895 14.6929 15.706C14.4296 15.7226 14.1694 15.6425 13.9609 15.4808L13.8591 15.3909L11.375 12.9068L8.89092 15.3909C8.69596 15.5852 8.43436 15.698 8.15925 15.7064C7.88414 15.7148 7.61614 15.6182 7.4097 15.4361C7.20325 15.2541 7.07383 15.0003 7.04773 14.7263C7.02163 14.4523 7.1008 14.1786 7.26917 13.9609L7.35908 13.8591L10.6091 10.6091Z" fill="black"/>
</g>
<defs>
<clipPath id="clip0_1_33">
<rect width="26" height="26" fill="white"/>
</clipPath>
</defs>
</svg>
