<svg width="37" height="39" viewBox="0 0 37 39" fill="none" xmlns="http://www.w3.org/2000/svg">
<g filter="url(#filter0_d_137_286)">
<path fill-rule="evenodd" clip-rule="evenodd" d="M18.5 21.7714L26.6755 29.9469C27.1093 30.3807 27.6977 30.6244 28.3112 30.6244C28.9247 30.6244 29.5131 30.3807 29.9469 29.9469C30.3807 29.513 30.6244 28.9247 30.6244 28.3112C30.6244 27.6976 30.3807 27.1093 29.9469 26.6754L21.7684 18.5L29.9454 10.3245C30.1601 10.1097 30.3303 9.85473 30.4465 9.57412C30.5627 9.2935 30.6224 8.99275 30.6223 8.68905C30.6223 8.38534 30.5624 8.08462 30.4461 7.80406C30.3298 7.52349 30.1594 7.26859 29.9446 7.05388C29.7298 6.83918 29.4748 6.66889 29.1942 6.55273C28.9136 6.43657 28.6128 6.37682 28.3091 6.3769C28.0054 6.37697 27.7047 6.43686 27.4241 6.55315C27.1435 6.66944 26.8886 6.83985 26.6739 7.05465L18.5 15.2301L10.3246 7.05465C10.1113 6.83369 9.85626 6.6574 9.57418 6.53607C9.2921 6.41474 8.98869 6.35081 8.68164 6.348C8.37459 6.34519 8.07005 6.40355 7.7858 6.51969C7.50155 6.63583 7.24328 6.80742 7.02605 7.02445C6.80882 7.24147 6.63699 7.49958 6.52058 7.78372C6.40417 8.06787 6.34552 8.37235 6.34804 8.6794C6.35056 8.98645 6.41421 9.28992 6.53527 9.57212C6.65633 9.85431 6.83238 10.1096 7.05315 10.323L15.2317 18.5L7.05469 26.677C6.83392 26.8904 6.65787 27.1457 6.53681 27.4279C6.41575 27.71 6.3521 28.0135 6.34958 28.3206C6.34706 28.6276 6.40571 28.9321 6.52212 29.2163C6.63853 29.5004 6.81036 29.7585 7.02759 29.9755C7.24482 30.1926 7.50309 30.3641 7.78734 30.4803C8.07159 30.5964 8.37613 30.6548 8.68318 30.652C8.99023 30.6492 9.29364 30.5852 9.57572 30.4639C9.8578 30.3426 10.1129 30.1663 10.3261 29.9453L18.5 21.7714Z" fill="white"/>
</g>
<defs>
<filter id="filter0_d_137_286" x="2.34796" y="6.3479" width="32.2765" height="32.3042" filterUnits="userSpaceOnUse" color-interpolation-filters="sRGB">
<feFlood flood-opacity="0" result="BackgroundImageFix"/>
<feColorMatrix in="SourceAlpha" type="matrix" values="0 0 0 0 0 0 0 0 0 0 0 0 0 0 0 0 0 0 127 0" result="hardAlpha"/>
<feOffset dy="4"/>
<feGaussianBlur stdDeviation="2"/>
<feComposite in2="hardAlpha" operator="out"/>
<feColorMatrix type="matrix" values="0 0 0 0 0 0 0 0 0 0 0 0 0 0 0 0 0 0 0.35 0"/>
<feBlend mode="normal" in2="BackgroundImageFix" result="effect1_dropShadow_137_286"/>
<feBlend mode="normal" in="SourceGraphic" in2="effect1_dropShadow_137_286" result="shape"/>
</filter>
</defs>
</svg>
