<svg width="26" height="27" viewBox="0 0 26 27" fill="none" xmlns="http://www.w3.org/2000/svg">
<g clip-path="url(#clip0_10_2)">
<path d="M18.2 0.716675H7.79999C3.61833 0.716675 0.21666 4.11834 0.21666 8.30001V18.7C0.21666 22.8817 3.61833 26.2833 7.79999 26.2833H18.2C22.3817 26.2833 25.7833 22.8817 25.7833 18.7V8.30001C25.7833 4.11834 22.3817 0.716675 18.2 0.716675ZM18.2 2.88334C20.4143 2.88334 22.3253 4.22234 23.1617 6.13334H19.1533L17.277 2.88334H18.2ZM14.7723 2.88334L16.6487 6.13334H11.3533L9.47699 2.88334H14.7723ZM7.01133 2.94834L8.84866 6.13334H2.83833C3.57499 4.45634 5.13933 3.22134 7.01133 2.94834ZM23.6167 18.7C23.6167 21.6857 21.1857 24.1167 18.2 24.1167H7.79999C4.81433 24.1167 2.38333 21.6857 2.38333 18.7V8.30001H23.6167V18.7ZM10.1097 19.1897V12.577C10.1097 11.9487 10.79 11.5543 11.336 11.8663L17.0647 15.1727C17.6107 15.489 17.6107 16.2733 17.0647 16.5897L11.336 19.896C10.7943 20.2167 10.1097 19.8223 10.1097 19.1897Z" fill="black"/>
</g>
<defs>
<clipPath id="clip0_10_2">
<rect width="26" height="26" fill="white" transform="translate(0 0.5)"/>
</clipPath>
</defs>
</svg>
