<svg width="26" height="27" viewBox="0 0 26 27" fill="none" xmlns="http://www.w3.org/2000/svg">
<g clip-path="url(#clip0_137_432)">
<path d="M19.4409 0.5H15.1864L15.8364 1.68182L19.4409 8.18182H24.8182H26V7.05909C26 3.45455 23.0455 0.5 19.4409 0.5Z" fill="white" stroke="black"/>
<path d="M10.5773 8.18182H18.0818L14.4773 1.68182L13.8273 0.5H6.55912C6.50003 0.5 6.38184 0.5 6.32275 0.5L6.97275 1.68182L10.5773 8.18182Z" fill="white" stroke="black"/>
<path d="M9.21818 8.18182L5.67273 1.74091L5.08182 0.677277C2.18636 1.38637 0 3.98637 0 7.0591V8.18182H1.18182H9.21818Z" fill="white" stroke="black"/>
<path d="M20.0909 9.36365H18.7318H11.2273H9.86818H1.18182H0V19.9409C0 23.5455 2.95455 26.5 6.55909 26.5H19.4409C23.0455 26.5 26 23.5455 26 19.9409V9.36365H24.8182H20.0909ZM10.0455 13.5C10.0455 13.2636 10.2227 13.0864 10.3409 13.0273C10.4591 12.9682 10.6364 12.9091 10.8136 12.9091C10.9909 12.9091 11.1682 12.9682 11.3455 13.0273L17.3727 16.8682C17.55 16.9864 17.6682 17.1636 17.6682 17.3409C17.6682 17.5182 17.55 17.6955 17.3727 17.8136L11.3455 21.6546C10.9909 21.8909 10.5773 21.8318 10.3409 21.6546C10.2227 21.5955 10.0455 21.4182 10.0455 21.1818V13.5Z" fill="white" stroke="black"/>
</g>
<defs>
<clipPath id="clip0_137_432">
<rect width="26" height="26" fill="white" transform="translate(0 0.5)"/>
</clipPath>
</defs>
</svg>
