<svg width="26" height="27" viewBox="0 0 26 27" fill="none" xmlns="http://www.w3.org/2000/svg">
<g clip-path="url(#clip0_137_691)">
<path d="M17.9833 1H7.58333C3.40167 1 0 4.40167 0 8.58333V18.9833C0 23.165 3.40167 26.5667 7.58333 26.5667H17.9833C22.165 26.5667 25.5667 23.165 25.5667 18.9833V8.58333C25.5667 4.40167 22.165 1 17.9833 1ZM17.9833 3.16667C20.1977 3.16667 22.1087 4.50567 22.945 6.41667H18.9367L17.0603 3.16667H17.9833ZM14.5557 3.16667L16.432 6.41667H11.1367L9.26033 3.16667H14.5557ZM6.79467 3.23167L8.632 6.41667H2.62167C3.35833 4.73967 4.92267 3.50467 6.79467 3.23167ZM23.4 18.9833C23.4 21.969 20.969 24.4 17.9833 24.4H7.58333C4.59767 24.4 2.16667 21.969 2.16667 18.9833V8.58333H23.4V18.9833ZM9.893 19.473V12.8603C9.893 12.232 10.5733 11.8377 11.1193 12.1497L16.848 15.456C17.394 15.7723 17.394 16.5567 16.848 16.873L11.1193 20.1793C10.5777 20.5 9.893 20.1057 9.893 19.473Z" fill="#ACAAAA"/>
</g>
<defs>
<clipPath id="clip0_137_691">
<rect width="26" height="26" fill="white" transform="translate(0 0.5)"/>
</clipPath>
</defs>
</svg>
