<svg width="27" height="26" viewBox="0 0 27 26" fill="none" xmlns="http://www.w3.org/2000/svg">
<path d="M18.0781 3.65625C16.0377 3.65625 14.2269 4.46164 13 5.84594C11.7731 4.46164 9.96227 3.65625 7.92188 3.65625C6.14476 3.6584 4.44104 4.36531 3.18442 5.62192C1.92781 6.87854 1.2209 8.58226 1.21875 10.3594C1.21875 17.7064 11.9651 23.5767 12.4221 23.8235C12.5997 23.9192 12.7983 23.9692 13 23.9692C13.2017 23.9692 13.4003 23.9192 13.5779 23.8235C14.0349 23.5767 24.7812 17.7064 24.7812 10.3594C24.7791 8.58226 24.0722 6.87854 22.8156 5.62192C21.559 4.36531 19.8552 3.6584 18.0781 3.65625ZM17.5205 18.1147C16.1061 19.315 14.594 20.3953 13 21.3444C11.406 20.3953 9.89395 19.315 8.47945 18.1147C6.27859 16.2266 3.65625 13.3473 3.65625 10.3594C3.65625 9.22806 4.10566 8.14308 4.90562 7.34312C5.70558 6.54316 6.79056 6.09375 7.92188 6.09375C9.72969 6.09375 11.243 7.04844 11.8716 8.58609C11.9631 8.81025 12.1193 9.00207 12.3203 9.1371C12.5213 9.27213 12.7579 9.34424 13 9.34424C13.2421 9.34424 13.4787 9.27213 13.6797 9.1371C13.8807 9.00207 14.0369 8.81025 14.1284 8.58609C14.757 7.04844 16.2703 6.09375 18.0781 6.09375C19.2094 6.09375 20.2944 6.54316 21.0944 7.34312C21.8943 8.14308 22.3438 9.22806 22.3438 10.3594C22.3438 13.3473 19.7214 16.2266 17.5205 18.1147Z" fill="black"/>
<circle cx="22.5" cy="6.5" r="4.5" fill="#FF001F"/>
</svg>
