<svg width="28" height="27" viewBox="0 0 28 27" fill="none" xmlns="http://www.w3.org/2000/svg">
<path d="M14.52 1.69205C14.3751 1.56811 14.1907 1.5 14 1.5C13.8093 1.5 13.6249 1.56811 13.48 1.69205L2 11.5321V23.1C2 23.7366 2.25286 24.347 2.70294 24.7971C3.15303 25.2472 3.76348 25.5 4.4 25.5H10.8C11.0122 25.5 11.2157 25.4158 11.3657 25.2657C11.5157 25.1157 11.6 24.9122 11.6 24.7001V19.9001C11.6 19.2635 11.8529 18.6531 12.3029 18.203C12.753 17.7529 13.3635 17.5001 14 17.5001C14.6365 17.5001 15.247 17.7529 15.6971 18.203C16.1471 18.6531 16.4 19.2635 16.4 19.9001V24.7001C16.4 24.9122 16.4843 25.1157 16.6343 25.2657C16.7843 25.4158 16.9878 25.5 17.2 25.5H23.6C24.2365 25.5 24.847 25.2472 25.2971 24.7971C25.7471 24.347 26 23.7366 26 23.1V11.5321L14.52 1.69205Z" stroke="black" stroke-width="2.5"/>
</svg>
