<svg width="24" height="25" viewBox="0 0 24 25" fill="none" xmlns="http://www.w3.org/2000/svg">
<g clip-path="url(#clip0_9_5)">
<path d="M12.52 0.692053C12.3751 0.568109 12.1907 0.5 12 0.5C11.8093 0.5 11.6249 0.568109 11.48 0.692053L0 10.5321V22.1C0 22.7366 0.252856 23.347 0.702944 23.7971C1.15303 24.2472 1.76348 24.5 2.4 24.5H8.8C9.01217 24.5 9.21566 24.4158 9.36569 24.2657C9.51571 24.1157 9.6 23.9122 9.6 23.7001V18.9001C9.6 18.2635 9.85286 17.6531 10.3029 17.203C10.753 16.7529 11.3635 16.5001 12 16.5001C12.6365 16.5001 13.247 16.7529 13.6971 17.203C14.1471 17.6531 14.4 18.2635 14.4 18.9001V23.7001C14.4 23.9122 14.4843 24.1157 14.6343 24.2657C14.7843 24.4158 14.9878 24.5 15.2 24.5H21.6C22.2365 24.5 22.847 24.2472 23.2971 23.7971C23.7471 23.347 24 22.7366 24 22.1V10.5321L12.52 0.692053Z" fill="black"/>
</g>
<defs>
<clipPath id="clip0_9_5">
<rect width="24" height="24" fill="white" transform="translate(0 0.5)"/>
</clipPath>
</defs>
</svg>
