<svg width="28" height="28" viewBox="0 0 28 28" fill="none" xmlns="http://www.w3.org/2000/svg">
<path d="M14.52 2.19205C14.3751 2.06811 14.1907 2 14 2C13.8093 2 13.6249 2.06811 13.48 2.19205L2 12.0321V23.6001C2 24.2366 2.25286 24.847 2.70294 25.2971C3.15303 25.7472 3.76348 26.0001 4.4 26.0001H10.8C11.0122 26.0001 11.2157 25.9158 11.3657 25.7657C11.5157 25.6157 11.6 25.4122 11.6 25.2001V20.4001C11.6 19.7635 11.8529 19.1531 12.3029 18.703C12.753 18.2529 13.3635 18.0001 14 18.0001C14.6365 18.0001 15.247 18.2529 15.6971 18.703C16.1471 19.1531 16.4 19.7635 16.4 20.4001V25.2001C16.4 25.4122 16.4843 25.6157 16.6343 25.7657C16.7843 25.9158 16.9878 26.0001 17.2 26.0001H23.6C24.2365 26.0001 24.847 25.7472 25.2971 25.2971C25.7471 24.847 26 24.2366 26 23.6001V12.0321L14.52 2.19205Z" stroke="white" stroke-width="2.5"/>
</svg>
