<svg width="14" height="14" viewBox="0 0 14 14" fill="none" xmlns="http://www.w3.org/2000/svg">
<path d="M6.0375 11.55L7 12.5125L7.9625 11.55C7.7 11.2875 7.35 11.1125 7 11.1125C6.65 11.1125 6.2125 11.2875 6.0375 11.55ZM7 4.025C9.3625 4.025 11.4625 4.9875 13.0375 6.475L14 5.5125C12.25 3.7625 9.7125 2.625 7 2.625C4.2875 2.625 1.75 3.7625 0 5.5125L0.9625 6.475C2.5375 4.9875 4.6375 4.025 7 4.025Z" fill="white"/>
<path d="M2.01245 7.52499L2.97495 8.48749C4.02495 7.52499 5.42495 6.91249 6.99995 6.91249C8.57495 6.91249 9.97495 7.52499 11.025 8.57499L11.9875 7.61249C10.7625 6.21249 8.92495 5.42499 6.99995 5.42499C5.07495 5.42499 3.23745 6.21249 2.01245 7.52499Z" fill="white"/>
<path d="M4.02502 9.5375L4.98752 10.5C5.51252 9.975 6.21252 9.7125 7.00002 9.7125C7.78752 9.7125 8.48752 10.0625 9.01252 10.5L9.97502 9.5375C9.27502 8.75 8.13752 8.3125 7.00002 8.3125C5.86252 8.3125 4.72502 8.75 4.02502 9.5375Z" fill="white"/>
</svg>
