<svg width="9" height="8" viewBox="0 0 9 8" fill="none" xmlns="http://www.w3.org/2000/svg">
<path d="M3.83129 7.36842C3.83129 7.53593 3.8995 7.69657 4.02091 7.81501C4.14233 7.93346 4.307 8 4.4787 8C4.6504 8 4.81507 7.93346 4.93649 7.81501C5.0579 7.69657 5.12611 7.53593 5.12611 7.36842V4.63158H7.93154C8.10325 4.63158 8.26792 4.56504 8.38933 4.44659C8.51074 4.32815 8.57895 4.16751 8.57895 4C8.57895 3.83249 8.51074 3.67185 8.38933 3.55341C8.26792 3.43496 8.10325 3.36842 7.93154 3.36842H5.12611V0.631579C5.12611 0.464074 5.0579 0.303429 4.93649 0.184985C4.81507 0.0665412 4.6504 0 4.4787 0C4.307 0 4.14233 0.0665412 4.02091 0.184985C3.8995 0.303429 3.83129 0.464074 3.83129 0.631579V3.36842H1.02586C0.854153 3.36842 0.689482 3.43496 0.56807 3.55341C0.446657 3.67185 0.378448 3.83249 0.378448 4C0.378448 4.16751 0.446657 4.32815 0.56807 4.44659C0.689482 4.56504 0.854153 4.63158 1.02586 4.63158H3.83129V7.36842Z" fill="white"/>
</svg>
