<svg width="26" height="22" viewBox="0 0 26 22" fill="none" xmlns="http://www.w3.org/2000/svg">
<path d="M17.5996 1C15.5906 1 13.8077 1.79298 12.5997 3.15595C11.3918 1.79298 9.60879 1 7.59984 1C5.8501 1.00212 4.17264 1.69814 2.93539 2.93539C1.69814 4.17264 1.00212 5.8501 1 7.59984C1 14.8337 11.5807 20.6135 12.0307 20.8565C12.2056 20.9507 12.4011 21 12.5997 21C12.7983 21 12.9938 20.9507 13.1687 20.8565C13.6187 20.6135 24.1994 14.8337 24.1994 7.59984C24.1973 5.8501 23.5013 4.17264 22.2641 2.93539C21.0268 1.69814 19.3493 1.00212 17.5996 1Z" stroke="#111111" stroke-width="2"/>
</svg>
